<svg xmlns="http://www.w3.org/2000/svg" fill="none" stroke="currentColor" stroke-linecap="round" stroke-linejoin="round" stroke-width="1" viewBox="0 0 14 14" id="Praying-Hands" role="img" aria-label="Praying hands">

  <path d="M2.01.51l1.22.77M1.03 2.93l1.43.18M1.18 5.61l1.37-.45M11.99.51l-1.22.77M12.97 2.93l-1.43.18M12.82 5.61l-1.37-.45" class="praying-hands svg-accent"/>

  <path d="M7.79 5.33C7.55 4.05 7.24 2.77 7 1.49c0-.39.18-.75.51-.85.29-.09.63.05.79.34l1.87 4.49v2.81c0 .22.05.56.22.94.18.42.43.69.59.85l1.14 1.14-2.19 2.26-2.94-2.94-2.94 2.94-2.19-2.26L3 10.07c.16-.16.41-.44.59-.85.17-.38.21-.72.22-.94V5.47L5.7.98c.16-.29.49-.43.79-.34.33.1.51.45.51.85-.24 1.28-.55 2.56-.79 3.84M8.56 8.65V6.06a.79.79 0 0 0-.77-.73c-.41 0-.76.32-.79.73M5.44 8.65V6.06a.79.79 0 0 1 .77-.73c.41 0 .76.32.79.73v4.49" class="praying-hands svg-base"/>


</svg>
